# xmcd
#
# Track frame offsets:
#	150
#	16063
#	33353
#	48129
#	63595
#	78465
#	94570
#	109269
#	123837
#	143609
#	156943
#	171606
#
# Disc length: 2483 seconds
#
# Revision: 2
# Processed by: cddbd v1.5.2PL0 Copyright (c) Steve Scherf et al.
# Submitted via: audiograbber 1.83.01
#
DISCID=9409b10c
DTITLE=Marco Vandéra - Mijn Droom
DYEAR=2010
DGENRE=Hollands
TTITLE0=Dat Kan Alleen Maar Liefde Zijn
TTITLE1=Terug Naar De Kust
TTITLE2=Ik Wil Alles
TTITLE3=Een Vuur Dat Eeuwig Brandt
TTITLE4=Ik Krijg Je Niet Meer Uit Mijn Droom
TTITLE5=Alleen Jij
TTITLE6=Ik Wil Nog Meer
TTITLE7=Zing Met Mij Mee
TTITLE8=Het Werd Zomer
TTITLE9=Want Als Je Zegt
TTITLE10=Sprakeloos
TTITLE11=Stop Met Dromen
EXTD=
EXTT0=
EXTT1=
EXTT2=
EXTT3=
EXTT4=
EXTT5=
EXTT6=
EXTT7=
EXTT8=
EXTT9=
EXTT10=
EXTT11=
PLAYORDER=
